<?xml version="1.0" encoding="utf-8"?>
<!-- Generator: Adobe Illustrator 25.2.3, SVG Export Plug-In . SVG Version: 6.00 Build 0)  -->
<svg version="1.1" id="Layer_1" xmlns="http://www.w3.org/2000/svg" xmlns:xlink="http://www.w3.org/1999/xlink" x="0px" y="0px"
	 viewBox="0 0 547.51 404.01" style="enable-background:new 0 0 547.51 404.01;" xml:space="preserve">
<style type="text/css">
	.st0{fill:#A5A4A4;stroke:#4A4A4C;stroke-width:2.7193;stroke-miterlimit:10;}
	.st1{fill:#DBA850;stroke:#DBA84F;stroke-width:2.7193;stroke-miterlimit:10;}
	.st2{fill:none;stroke:#4A4A4C;stroke-width:3;stroke-miterlimit:10;}
	.st3{fill:#C59B6C;stroke:#754D25;stroke-width:3;stroke-miterlimit:10;}
	.st4{fill:#A5A4A4;stroke:#4A4A4C;stroke-width:3;stroke-miterlimit:10;}
	.st5{fill:#FFFFFF;stroke:#4A4A4C;stroke-width:2.1755;stroke-miterlimit:10;}
</style>
<ellipse class="st0" cx="264.35" cy="114.98" rx="68.8" ry="16.45"/>
<path id="Wort" class="st1" d="M333.15,114.98c0,9.08-30.8,16.45-68.8,16.45s-68.8-7.36-68.8-16.45l24.98-4.3
	c3.6-0.62,7.3-0.37,10.78,0.73l11.09,3.49c3.94,1.24,8.14,1.39,12.16,0.44l14.6-3.45c5.86-1.38,12.04-0.41,17.19,2.72v0
	c6.18,3.75,13.76,4.38,20.47,1.68l3.61-1.45c3.74-1.5,7.81-1.99,11.8-1.43L333.15,114.98z"/>
<ellipse class="st2" cx="264.35" cy="114.98" rx="68.8" ry="16.45"/>
<path id="Paddle" class="st3" d="M234.65,182.95V34.05h10.29v-9.37h-30.05v8.81h9.75c0,0,0.39,147.54,0,149.34L234.65,182.95z"/>
<path class="st4" d="M195.54,114.98c0,9.08,30.8,16.45,68.8,16.45s68.8-7.36,68.8-16.45v134.9c0,7.88-30.8,14.27-68.8,14.27
	s-68.8-6.39-68.8-14.27V114.98z"/>
<g id="Thermometer">
	<circle class="st5" cx="264.35" cy="217.25" r="15.97"/>
	<line class="st5" x1="264.35" y1="217.25" x2="258.82" y2="222.78"/>
</g>
<circle class="st5" cx="264.35" cy="249.22" r="4.57"/>
</svg>
